<svg width="40" height="40" viewBox="0 0 40 40" fill="none" xmlns="http://www.w3.org/2000/svg">
<path d="M37.9 21.0504L34.15 12.4403C34.0543 12.218 33.8942 12.0283 33.6897 11.8949C33.4852 11.7615 33.2454 11.6902 33 11.69H29.25V9.23001C29.25 8.90379 29.1183 8.59093 28.8839 8.36026C28.6495 8.12959 28.3315 8 28 8H4.25C3.91848 8 3.60054 8.12959 3.36612 8.36026C3.1317 8.59093 3 8.90379 3 9.23001V30.1402C3 30.4664 3.1317 30.7793 3.36612 31.01C3.60054 31.2406 3.91848 31.3702 4.25 31.3702H6.925C7.21285 32.4125 7.84125 33.3326 8.71325 33.9886C9.58524 34.6446 10.6524 35 11.75 35C12.8476 35 13.9148 34.6446 14.7868 33.9886C15.6587 33.3326 16.2871 32.4125 16.575 31.3702H24.425C24.7129 32.4125 25.3413 33.3326 26.2132 33.9886C27.0852 34.6446 28.1524 35 29.25 35C30.3476 35 31.4148 34.6446 32.2868 33.9886C33.1587 33.3326 33.7871 32.4125 34.075 31.3702H36.75C37.0815 31.3702 37.3995 31.2406 37.6339 31.01C37.8683 30.7793 38 30.4664 38 30.1402V21.5301C37.9997 21.3653 37.9657 21.2021 37.9 21.0504ZM29.25 14.1501H32.175L34.85 20.3001H29.25V14.1501ZM11.75 32.6002C11.2555 32.6002 10.7722 32.456 10.3611 32.1857C9.94995 31.9153 9.62952 31.5311 9.4403 31.0816C9.25108 30.6321 9.20157 30.1375 9.29804 29.6603C9.3945 29.1831 9.6326 28.7448 9.98223 28.4007C10.3319 28.0567 10.7773 27.8224 11.2623 27.7275C11.7472 27.6325 12.2499 27.6813 12.7067 27.8675C13.1635 28.0536 13.554 28.369 13.8287 28.7735C14.1034 29.1781 14.25 29.6537 14.25 30.1402C14.25 30.7927 13.9866 31.4184 13.5178 31.8797C13.0489 32.3411 12.413 32.6002 11.75 32.6002ZM24.425 28.9102H16.575C16.2871 27.8679 15.6587 26.9478 14.7868 26.2918C13.9148 25.6359 12.8476 25.2804 11.75 25.2804C10.6524 25.2804 9.58524 25.6359 8.71325 26.2918C7.84125 26.9478 7.21285 27.8679 6.925 28.9102H5.5V10.46H26.75V25.909C26.1808 26.2341 25.6824 26.6665 25.2834 27.1815C24.8845 27.6965 24.5927 28.284 24.425 28.9102ZM29.25 32.6002C28.7555 32.6002 28.2722 32.456 27.8611 32.1857C27.45 31.9153 27.1295 31.5311 26.9403 31.0816C26.7511 30.6321 26.7016 30.1375 26.798 29.6603C26.8945 29.1831 27.1326 28.7448 27.4822 28.4007C27.8319 28.0567 28.2773 27.8224 28.7623 27.7275C29.2472 27.6325 29.7499 27.6813 30.2067 27.8675C30.6635 28.0536 31.054 28.369 31.3287 28.7735C31.6034 29.1781 31.75 29.6537 31.75 30.1402C31.75 30.7927 31.4866 31.4184 31.0178 31.8797C30.5489 32.3411 29.913 32.6002 29.25 32.6002ZM35.5 28.9102H34.075C33.7986 27.8567 33.1751 26.9231 32.3021 26.2555C31.429 25.5878 30.3557 25.2237 29.25 25.2202V22.7601H35.5V28.9102Z" fill="#02E602"/>
</svg>
