<svg width="53" height="24" viewBox="0 0 53 24" fill="none" xmlns="http://www.w3.org/2000/svg">
<path d="M53 2.575C52.7669 2.98944 52.4044 3.10247 51.9254 3.10247C49.1805 3.08991 46.4486 3.08991 43.7038 3.08991C43.5225 3.08991 43.3283 3.08991 43.147 3.08991C42.9269 3.84342 43.0046 4.00668 43.6002 4.396C44.3252 4.87323 44.6878 5.55139 44.7007 6.39282C44.7137 7.42263 44.7266 8.46499 44.7007 9.4948C44.6748 10.9139 43.6131 11.9437 42.2278 11.9186C40.8553 11.8935 39.8713 10.8888 39.8325 9.48224C39.8325 9.25619 39.8325 9.01757 39.8325 8.71616C39.224 8.71616 38.6672 8.71616 38.0975 8.71616C37.3336 8.71616 36.5827 8.70361 35.8188 8.72872C35.6634 8.72872 35.4304 8.81663 35.3656 8.92966C34.8219 9.95947 33.9285 10.3613 32.7762 10.3237C32.6208 10.3237 32.4784 10.3362 32.2842 10.3488C32.2842 11.1902 32.2842 11.994 32.2842 12.8354C33.0869 12.9484 33.8508 13.187 34.3169 13.815C34.7183 14.3299 35.0679 14.9452 35.2491 15.5606C35.8576 17.6956 36.3885 19.8557 36.9193 22.0157C37.01 22.4176 37.1783 22.5432 37.5796 22.493C37.7609 22.4678 37.9551 22.4804 38.1493 22.5055C38.6025 22.5432 38.8485 22.8069 38.8614 23.2214C38.8744 23.6107 38.6413 23.887 38.227 23.9623C37.994 24 37.748 24 37.502 24C36.6863 24 35.8835 24 35.0679 24C34.3687 24 34.0191 23.7363 34.0191 23.2339C34.0191 22.7441 34.3299 22.5181 35.029 22.493C35.1326 22.493 35.2362 22.4804 35.3786 22.4678C35.3656 22.3171 35.3657 22.1916 35.3268 22.0785C34.796 19.9938 34.2522 17.8965 33.7213 15.8118C33.553 15.1587 33.2034 14.6564 32.5043 14.4303C32.2712 14.355 32.1029 14.3424 31.9605 14.6187C31.5073 15.5229 30.7175 15.9374 29.7076 15.9499C27.5584 15.9625 25.3962 15.9625 23.2469 15.9499C22.237 15.9499 21.4731 15.5104 20.9681 14.6313C20.9034 14.5182 20.6315 14.4052 20.502 14.4303C19.8676 14.581 19.4662 15.008 19.2979 15.6234C18.7153 17.8337 18.1456 20.0566 17.5759 22.2669C17.563 22.3171 17.5759 22.3674 17.5889 22.4678C17.7831 22.4804 17.9902 22.4804 18.1845 22.493C18.6247 22.5306 18.8836 22.7441 18.9225 23.1711C18.9613 23.5856 18.7024 23.9121 18.2362 23.9623C17.6925 24.0126 17.1357 23.9874 16.579 23.9874C16.0611 23.9874 15.5432 24 15.0253 23.9874C14.4297 23.9749 14.0672 23.6735 14.0801 23.2088C14.0931 22.7567 14.4297 22.5055 15.0123 22.4804C15.9057 22.4553 15.9057 22.4553 16.1258 21.6139C16.6437 19.5794 17.1746 17.5323 17.6925 15.4978C18.0679 13.9908 19.026 13.0866 20.6574 12.8354C20.6574 12.0191 20.6574 11.2028 20.6574 10.3111C20.3596 10.3111 20.0877 10.3237 19.8158 10.3111C18.8318 10.286 18.1197 9.84644 17.6407 9.01757C17.563 8.87943 17.3817 8.72872 17.2393 8.72872C15.9446 8.70361 14.6498 8.71616 13.368 8.71616C13.3033 8.71616 13.2386 8.75384 13.122 8.77896C13.122 9.08036 13.135 9.38177 13.122 9.67062C13.0573 10.8762 12.1251 11.8056 10.8951 11.8935C9.65213 11.9814 8.47391 11.2153 8.35739 10.0223C8.22791 8.65337 8.29265 7.25937 8.34444 5.87792C8.37033 5.24999 8.75876 4.68485 9.32844 4.43368C10.0017 4.13227 9.94991 3.6676 9.87223 3.07735C9.67802 3.07735 9.49676 3.07735 9.31549 3.07735C6.60949 3.07735 3.90348 3.07735 1.19748 3.07735C1.00326 3.07735 0.822002 3.07735 0.627791 3.05223C0.226422 3.002 -0.0454716 2.73826 0.00631798 2.38662C0.0451602 2.12289 0.278212 1.8466 0.498317 1.65822C0.640739 1.5452 0.925581 1.57031 1.14569 1.57031C3.85169 1.57031 6.5577 1.57031 9.2637 1.57031C9.45791 1.57031 9.63918 1.57031 9.85928 1.57031C10.0147 0.95494 9.66507 -0.0246307 10.7527 0.0130452C11.7237 0.050721 11.4 0.942382 11.5036 1.57031C11.7237 1.57031 11.9179 1.57031 12.1251 1.57031C14.8311 1.57031 17.5371 1.57031 20.2431 1.57031C20.4632 1.57031 20.6963 1.58287 20.9034 1.64567C21.2789 1.75869 21.4472 2.04754 21.3954 2.4243C21.3566 2.7885 21.1365 3.002 20.7739 3.05223C20.5927 3.07735 20.3985 3.07735 20.2043 3.07735C17.4982 3.07735 14.7922 3.07735 12.0862 3.07735C11.905 3.07735 11.7108 3.07735 11.5165 3.07735C11.4 3.68016 11.3871 4.0946 12.0474 4.42112C12.7595 4.77276 13.0961 5.46349 13.122 6.25468C13.135 6.53097 13.122 6.81982 13.122 7.13378C13.2903 7.1589 13.4069 7.18402 13.5363 7.18402C14.7405 7.18402 15.9446 7.19657 17.1487 7.17146C17.304 7.17146 17.5371 7.04587 17.6148 6.90772C18.1068 6.02862 18.8707 5.58907 19.8806 5.57651C24.2568 5.56395 28.633 5.56395 33.0092 5.57651C34.0191 5.57651 34.783 6.02862 35.2621 6.92028C35.3139 7.02075 35.4433 7.1589 35.534 7.1589C36.9193 7.17145 38.3177 7.17146 39.7678 7.17146C39.7678 6.80726 39.7548 6.51841 39.7678 6.217C39.7937 5.45092 40.1173 4.7602 40.8036 4.42112C41.4509 4.10715 41.4768 3.68016 41.3603 3.05223C41.179 3.05223 40.9719 3.05223 40.7777 3.05223C38.0846 3.05223 35.4045 3.05223 32.7114 3.05223C32.5172 3.05223 32.336 3.05223 32.1417 3.03967C31.7533 2.98944 31.5203 2.77594 31.4814 2.38662C31.4426 1.98475 31.6368 1.70846 32.0382 1.60799C32.2324 1.55776 32.4525 1.55775 32.6467 1.55775C35.3527 1.55775 38.0587 1.55775 40.7647 1.55775C40.946 1.55775 41.1402 1.55775 41.3603 1.55775C41.4768 0.929823 41.1402 -0.0246314 42.176 0.000485812C43.16 0.0130444 42.8751 0.917264 42.9787 1.55775C43.1859 1.55775 43.3671 1.55775 43.5613 1.55775C46.2673 1.55775 48.9734 1.57031 51.6794 1.55775C52.1714 1.55775 52.5857 1.64567 52.8964 2.04754C53 2.23592 53 2.41174 53 2.575ZM22.3276 10.3362C22.3276 11.366 22.3276 12.2954 22.3276 13.2373C22.3276 14.1917 22.6125 14.468 23.5835 14.468C24.9948 14.468 26.406 14.468 27.8173 14.468C28.4517 14.468 29.0862 14.4806 29.7335 14.4555C30.2255 14.4429 30.6657 14.2545 30.6787 13.7271C30.7175 12.6219 30.6916 11.5042 30.6916 10.3613C30.3421 10.3362 30.0184 10.3362 29.6947 10.286C29.3063 10.2232 29.0991 9.97203 29.0862 9.59527C29.0732 9.21851 29.2674 8.95478 29.6558 8.86687C29.8371 8.82919 30.0313 8.81664 30.2126 8.81664C31.0412 8.81664 31.8699 8.81664 32.6855 8.81664C33.5789 8.81664 34.0062 8.5529 34.0062 7.97521C34.0062 7.39751 33.5789 7.10866 32.6985 7.10866C28.5683 7.10866 24.438 7.10866 20.3078 7.10866C20.1007 7.10866 19.8935 7.12122 19.6993 7.1589C19.2461 7.24681 19.026 7.56077 19.039 7.98777C19.0519 8.41476 19.285 8.71616 19.7511 8.77896C19.9583 8.80407 20.1654 8.80408 20.3726 8.81664C22.2629 8.81664 24.1661 8.81664 26.0565 8.81664C26.2636 8.81664 26.4708 8.82919 26.6779 8.85431C27.0923 8.92966 27.2994 9.19339 27.2865 9.59527C27.2735 9.99714 27.0405 10.2734 26.6262 10.286C25.8493 10.3237 25.0725 10.3111 24.3086 10.3111C23.6612 10.3362 23.0268 10.3362 22.3276 10.3362ZM11.659 8.00033C11.659 7.48542 11.6719 6.97052 11.659 6.44306C11.646 5.90304 11.3223 5.56395 10.8303 5.52628C10.3513 5.50116 9.93697 5.82768 9.92402 6.35515C9.89813 7.43519 9.88518 8.52779 9.92402 9.60783C9.93697 10.1353 10.3513 10.4367 10.8433 10.4116C11.3223 10.3865 11.6331 10.0599 11.646 9.54503C11.6719 9.03013 11.659 8.51523 11.659 8.00033ZM41.3991 7.98777C41.3991 8.47755 41.3991 8.95478 41.3991 9.44457C41.3991 9.48224 41.3991 9.50736 41.3991 9.54503C41.438 10.0851 41.7487 10.4116 42.2537 10.4241C42.7457 10.4367 43.1341 10.1102 43.147 9.58271C43.1729 8.51523 43.1729 7.44775 43.147 6.38026C43.1341 5.8528 42.7327 5.52628 42.2407 5.53884C41.7487 5.56395 41.425 5.90304 41.3991 6.44306C41.3991 6.95796 41.3991 7.47286 41.3991 7.98777Z" fill="#02E602"/>
</svg>
