<svg width="40" height="40" viewBox="0 0 40 40" fill="none" xmlns="http://www.w3.org/2000/svg">
<path d="M40 26.9555C39.8125 27.1742 39.6459 27.4033 39.4479 27.6012C38.3855 28.674 37.3126 29.7364 36.2502 30.7884C37.2085 32.8298 37.0002 34.5067 35.6669 35.7878C34.6878 36.7357 32.8441 37.4335 30.8026 36.2357C30.2818 36.7669 29.7401 37.2981 29.2089 37.8293C28.5839 38.4542 27.959 39.0896 27.3236 39.7041C26.9486 40.0686 26.5007 40.0895 26.1778 39.777C25.8341 39.4541 25.8445 38.9854 26.2299 38.6C27.3757 37.4439 28.5318 36.2982 29.6984 35.1317C29.1985 34.3297 28.9901 33.4652 29.0735 32.5278C29.0839 32.4549 29.0318 32.3507 28.9693 32.2882C27.8444 31.1529 26.709 30.0176 25.5424 28.8511C25.4903 28.9865 25.4487 29.0802 25.4278 29.174C25.2299 29.7677 24.855 30.2259 24.3133 30.528C21.4385 32.1112 18.5532 32.1007 15.6783 30.528C15.043 30.1739 14.6576 29.6218 14.4805 28.8719C14.3555 28.9865 14.2617 29.0594 14.168 29.1531C13.1681 30.153 12.1681 31.1633 11.1577 32.1632C10.9911 32.3299 10.9078 32.4861 10.9286 32.7361C10.9807 33.6006 10.8453 34.0901 10.3036 35.1525C11.1161 35.9545 11.939 36.7773 12.7618 37.5897C13.1056 37.9335 13.4493 38.2668 13.7826 38.6105C14.1472 38.9854 14.1576 39.4333 13.8451 39.7562C13.5222 40.0895 13.0535 40.0895 12.6681 39.7041C11.5536 38.6001 10.439 37.4752 9.3245 36.3607C9.29325 36.3295 9.25159 36.2878 9.18909 36.2357C8.25164 36.7982 7.25169 37.0169 6.16842 36.7669C5.35596 36.5794 4.67891 36.1732 4.11644 35.5483C3.15815 34.4755 2.64777 32.6528 3.82479 30.6946C3.73104 30.6426 3.58521 30.6009 3.48105 30.5072C2.47069 29.5073 1.47074 28.5074 0.470793 27.4971C0.39788 27.4242 0.324967 27.3513 0.252054 27.2783C-0.070846 26.9138 -0.0708466 26.4763 0.241637 26.1639C0.554121 25.8514 1.00202 25.8514 1.35616 26.1847C2.04363 26.8409 2.71026 27.5283 3.37689 28.1949C3.87687 28.6949 4.36643 29.1948 4.8664 29.7052C5.67886 29.1948 6.53298 28.9969 7.46002 29.0698C7.56418 29.0802 7.69959 28.9865 7.78292 28.9032C9.76198 26.9242 11.7515 24.9557 13.7201 22.9663C13.8347 22.8517 13.9076 22.6538 13.8972 22.4976C13.7409 20.654 13.5743 18.8209 13.3972 16.9774C13.3764 16.8003 13.2722 16.6024 13.1472 16.4774C11.3765 14.6964 9.60574 12.9153 7.81416 11.1446C7.71 11.0405 7.53293 10.9363 7.39752 10.9363C6.50173 10.9884 5.66844 10.7905 4.8664 10.2906C4.50184 10.6655 4.13727 11.0301 3.77271 11.3946C2.9915 12.1758 2.21029 12.9674 1.41866 13.7381C1.01243 14.1339 0.543707 14.1547 0.220807 13.811C-0.102093 13.4777 -0.0708454 13.0299 0.314551 12.6341C1.46033 11.4988 2.6061 10.3635 3.75187 9.21777C2.76234 7.3638 2.88733 5.64523 4.41851 4.15581C5.65802 2.9476 7.26211 2.84345 9.22034 3.76002C10.2828 2.68721 11.3556 1.61441 12.4285 0.531194C12.616 0.343714 12.8347 0.177064 13.0431 0C13.1993 0 13.3555 0 13.5118 0C14.1993 0.4687 14.2513 0.91657 13.6472 1.52067C12.6264 2.5414 11.6056 3.56212 10.5744 4.58284C10.4703 4.67658 10.3244 4.72866 10.2411 4.78074C10.814 5.85354 10.939 6.39515 10.9286 7.30131C10.9286 7.47837 11.0119 7.70751 11.1369 7.8325C12.0431 8.7699 12.9701 9.67605 13.8868 10.603C13.9597 10.6759 14.0326 10.728 14.0951 10.7905C15.8242 9.33234 17.7095 8.3012 20.001 8.31161C22.2926 8.32203 24.1675 9.35317 25.8653 10.8113C26.8861 9.79062 27.9069 8.78031 28.9068 7.75959C28.9797 7.68668 29.0526 7.56169 29.0422 7.45754C28.9693 6.53055 29.1776 5.67648 29.6776 4.8849C28.5423 3.76002 27.4277 2.64555 26.3236 1.53109C25.7299 0.937401 25.7716 0.489532 26.459 0.0208324C26.6153 0.0208324 26.7715 0.0208324 26.9278 0.0208324C27.1361 0.197897 27.3548 0.354128 27.5423 0.552023C28.5318 1.53109 29.511 2.51015 30.4901 3.51004C30.5838 3.60378 30.6255 3.76002 30.6776 3.85376C32.667 2.66638 34.5211 3.19757 35.5836 4.19747C36.1877 4.77032 36.5835 5.45775 36.7606 6.25975C36.9793 7.31172 36.771 8.29078 36.1981 9.21777C37.2606 10.2802 38.3126 11.3217 39.3542 12.3737C39.5729 12.5924 39.7604 12.8424 39.9688 13.0715C39.9688 13.2278 39.9688 13.384 39.9688 13.5402C39.4896 14.2276 39.0521 14.2693 38.4584 13.6756C37.4376 12.6549 36.4169 11.6342 35.3961 10.603C35.3023 10.4989 35.2502 10.3531 35.1982 10.2489C34.3128 10.8009 33.5003 10.9988 32.615 10.9468C32.4691 10.9363 32.2921 11.0301 32.1879 11.1342C30.3963 12.9153 28.6048 14.6963 26.834 16.4878C26.7194 16.6024 26.6153 16.7899 26.6049 16.9461C26.4174 18.8001 26.2507 20.654 26.0945 22.508C26.0841 22.6538 26.157 22.8413 26.2611 22.9455C28.2402 24.9453 30.2297 26.9242 32.2192 28.9136C32.3025 28.9969 32.4379 29.0907 32.5421 29.0802C33.4691 29.0073 34.3232 29.2156 35.1253 29.7156C36.2502 28.5803 37.3647 27.4658 38.4792 26.3618C39.073 25.7681 39.5209 25.8098 39.9896 26.4972C40 26.643 40 26.7992 40 26.9555ZM16.6366 10.9155C14.8763 11.8425 14.5222 12.6237 14.7201 14.2485C14.7305 14.3422 14.7409 14.4255 14.7513 14.5193C15.168 19.1542 15.5846 23.7995 16.0221 28.4345C16.0429 28.6532 16.1679 28.9448 16.3346 29.0594C16.72 29.3198 17.1678 29.4969 17.647 29.7364C17.647 28.5178 17.6366 27.3825 17.647 26.2576C17.6574 24.9453 18.6782 23.9141 19.9594 23.9037C21.2614 23.8933 22.3134 24.9244 22.3238 26.2472C22.3342 27.2575 22.3238 28.2782 22.3238 29.2885C22.3238 29.4135 22.3342 29.5385 22.3447 29.726C22.803 29.4969 23.23 29.3302 23.5946 29.0802C23.7717 28.9657 23.9071 28.6949 23.9487 28.4657C24.0425 27.872 24.0633 27.2783 24.1258 26.6847C24.3446 24.2474 24.5737 21.8102 24.7925 19.3834C24.9695 17.4669 25.157 15.5504 25.2924 13.634C25.3758 12.4362 24.5216 11.2905 23.3342 10.9363C23.1259 12.7695 22.9175 14.613 22.7196 16.4462C22.6571 17.0086 22.3342 17.3107 21.8343 17.269C21.376 17.2273 21.1051 16.842 21.1572 16.3003C21.2614 15.2796 21.3864 14.2589 21.501 13.2382C21.6155 12.2174 21.7197 11.2071 21.8343 10.1968C20.7093 9.72813 19.0427 9.73855 18.1053 10.2281C18.2928 11.9362 18.4803 13.6548 18.6782 15.3734C18.8448 16.8628 19.0219 18.3418 19.1782 19.8312C19.2302 20.352 18.9282 20.7374 18.4699 20.779C18.022 20.8207 17.6782 20.4978 17.6262 19.9979C17.3866 17.8731 17.1574 15.7587 16.9179 13.634C16.8449 12.7278 16.7408 11.8321 16.6366 10.9155ZM7.04337 9.374C8.32456 9.374 9.36617 8.32203 9.37658 7.04092C9.37658 5.73897 8.32455 4.687 7.02254 4.687C5.74135 4.687 4.69974 5.73897 4.68933 7.02008C4.68933 8.32203 5.74136 9.374 7.04337 9.374ZM35.3127 7.02008C35.3023 5.73897 34.2607 4.69742 32.9795 4.687C31.6775 4.687 30.6255 5.73897 30.6359 7.04092C30.6463 8.33245 31.7088 9.38442 33.0108 9.374C34.2815 9.35317 35.3232 8.3012 35.3127 7.02008ZM9.37658 32.9652C9.37658 31.6841 8.33497 30.6322 7.05379 30.6217C5.75177 30.6113 4.68933 31.6633 4.68933 32.9652C4.68933 34.2463 5.73094 35.2983 7.01212 35.3087C8.31414 35.3192 9.37658 34.2672 9.37658 32.9652ZM35.3127 32.9652C35.3127 31.6841 34.2711 30.6322 32.9899 30.6217C31.6879 30.6113 30.6255 31.6633 30.6255 32.9652C30.6255 34.2463 31.6671 35.2983 32.9483 35.3087C34.2503 35.3192 35.3127 34.2568 35.3127 32.9652ZM10.4078 30.7363C10.3036 30.7571 10.3245 30.7571 10.3349 30.7467C11.6161 29.476 12.8972 28.1949 14.1784 26.9242C14.2305 26.8721 14.293 26.7888 14.2826 26.7263C14.2305 26.1014 14.168 25.4869 14.1159 24.9348C12.5014 26.5493 10.8973 28.1533 9.37658 29.6739C9.67865 29.9968 10.0224 30.3405 10.4078 30.7363ZM25.8861 24.9036C25.8341 25.4035 25.8028 25.9347 25.7299 26.4555C25.6987 26.6951 25.7507 26.8617 25.9278 27.0388C27.1048 28.1949 28.2714 29.3719 29.438 30.5384C29.5214 30.6217 29.6151 30.7051 29.6984 30.7884C29.6776 30.7363 29.6568 30.6946 29.6255 30.6426C29.9797 30.3093 30.3338 29.9656 30.6359 29.6843C29.1047 28.1428 27.5006 26.5284 25.8861 24.9036ZM10.4182 9.28026C10.012 9.66564 9.6474 10.0093 9.34534 10.301C10.5744 11.53 11.8556 12.8111 13.0639 14.0193C13.1264 13.4986 13.2097 12.8945 13.2722 12.2799C13.2826 12.207 13.2306 12.1029 13.1681 12.0508C12.2306 11.1134 11.2827 10.1656 10.4182 9.28026ZM26.9382 14.0298C28.1673 12.8007 29.4589 11.5196 30.6567 10.3322C30.3338 10.0094 29.9901 9.66564 29.636 9.31151C29.6984 9.22818 29.6672 9.22818 29.6464 9.24901C28.7089 10.1864 27.7715 11.1134 26.834 12.0508C26.7819 12.1133 26.7194 12.207 26.7298 12.2799C26.7923 12.9049 26.8757 13.5194 26.9382 14.0298ZM20.7822 30.101C20.7822 28.7678 20.7927 27.4658 20.7718 26.1743C20.7614 25.7577 20.3864 25.4556 19.9906 25.466C19.6052 25.4764 19.2407 25.7681 19.2407 26.1743C19.2198 27.4762 19.2302 28.7678 19.2302 30.1114C19.751 30.101 20.251 30.101 20.7822 30.101Z" fill="#02E602"/>
<path d="M20.3393 2C22.2132 2.01989 23.8254 2.39783 25.2596 3.34269C25.4062 3.44214 25.5632 3.5416 25.6993 3.66095C26.0553 3.96927 26.0971 4.39694 25.8145 4.72515C25.5318 5.05336 25.0817 5.09315 24.6943 4.80472C23.8777 4.18808 22.9565 3.81014 21.9305 3.64106C19.8891 3.31285 17.9838 3.58139 16.2983 4.81467C15.9109 5.09315 15.4608 5.05336 15.1781 4.72515C14.8954 4.387 14.9478 3.94938 15.3456 3.64106C16.5181 2.73599 17.8686 2.26854 19.3552 2.08951C19.7321 2.03978 20.1089 2.01989 20.3393 2Z" fill="#02E602"/>
<path d="M24 6.27098C23.7963 6.50569 23.6784 6.72234 23.4747 6.85775C23.2174 7.0383 22.9065 6.99316 22.6063 6.8397C21.5557 6.30709 20.43 6.23487 19.2828 6.49666C18.9398 6.57791 18.6181 6.72234 18.3072 6.86678C17.8462 7.08343 17.4067 7.03829 17.1387 6.71332C16.8814 6.38834 16.9886 6.00017 17.4067 5.73838C18.9398 4.78149 21.8987 4.74538 23.4532 5.68421C23.6569 5.81962 23.7856 6.0453 24 6.27098Z" fill="#02E602"/>
<path d="M23 20.0067C23 20.5564 22.52 21.0257 21.9733 20.9989C21.44 20.9855 21 20.5296 21 19.9933C21 19.4436 21.48 18.9743 22.0267 19.0011C22.56 19.0145 23 19.4704 23 20.0067Z" fill="#02E602"/>
<path d="M7.00711 6C7.54366 6 7.99972 6.44295 7.99972 6.97986C8.01313 7.5302 7.54366 8 6.9937 8C6.44374 8 5.97427 7.51678 6.0011 6.96644C6.01451 6.44295 6.47057 6 7.00711 6Z" fill="#02E602"/>
<path d="M32.9793 6.0003C33.5159 5.98688 33.972 6.4297 33.9989 6.95304C34.0257 7.50322 33.5696 7.9863 33.0196 7.99972C32.4695 8.01314 32 7.54348 32 6.9933C32 6.46996 32.4427 6.01372 32.9793 6.0003Z" fill="#02E602"/>
<path d="M8 33C8 33.5465 7.5302 34.0131 6.97986 33.9997C6.44295 33.9864 6 33.5332 6 33C6 32.4535 6.4698 31.9869 7.02014 32.0003C7.55705 32.0136 8 32.4668 8 33Z" fill="#02E602"/>
<path d="M34 33.0133C33.9867 33.5598 33.5067 34.013 32.96 33.9997C32.4267 33.9731 32 33.5199 32 32.9867C32.0133 32.4402 32.48 31.987 33.04 32.0003C33.5733 32.0269 34 32.4801 34 33.0133Z" fill="#02E602"/>
</svg>
