<svg width="939" height="718" viewBox="0 0 939 718" fill="none" xmlns="http://www.w3.org/2000/svg">
<g clip-path="url(#clip0_213_156)">
<path d="M251.397 361.169C230.765 399.836 245.654 450.07 280.963 453.557C316.272 457.043 354.346 439.611 370.299 413.939C386.252 388.267 327.12 381.929 308.402 362.912C289.684 343.737 261.182 342.945 251.397 361.169Z" stroke="#464646" stroke-opacity="0.7" stroke-miterlimit="10"/>
<path d="M344.257 485.984C378.727 486.774 389.724 458.65 419.331 443.64C436.672 434.792 438.787 426.892 438.998 418.676C439.21 405.562 419.754 388.972 411.929 383.126C388.244 365.114 343.411 350.578 327.339 327.036C298.789 285.482 250.784 321.98 229.002 342.046C201.087 367.642 197.915 394.028 212.719 415.358C246.132 462.758 236.404 483.298 344.257 485.984Z" stroke="#464646" stroke-opacity="0.7" stroke-miterlimit="10"/>
<path d="M237.452 482.984C244.418 507.554 293.811 503.774 366.635 521.098C421.728 534.171 433.759 476.369 482.942 453.689C533.602 430.221 511.438 414.786 480.62 389.586C446.213 361.237 368.535 333.359 343.838 290.677C306.687 226.575 236.608 299.969 203.89 322.334C156.607 354.622 160.406 384.704 178.56 412.581C197.346 441.089 232.597 465.659 237.452 482.984Z" stroke="#464646" stroke-opacity="0.7" stroke-miterlimit="10"/>
<path d="M212.328 496.502C213.172 533.385 284.058 527.238 387.011 555.609C463.382 576.73 475.829 493.508 544.605 462.93C617.389 430.776 585.111 407.606 532.579 375.925C478.782 343.456 386.8 307.361 358.319 252.983C312.75 165.821 220.345 276.153 176.675 301.214C109.376 339.83 116.97 375.452 142.287 408.552C167.603 441.967 211.696 472.071 212.328 496.502Z" stroke="#464646" stroke-opacity="0.7" stroke-miterlimit="10"/>
<path d="M148.493 283.163C61.2163 327.76 72.6278 369.363 104.749 407.657C137.082 445.951 190.124 481.093 186.32 513.084C180.826 561.778 274.02 553.741 407.155 593.138C505.209 622.135 517.889 513.556 606.434 475.262C701.107 433.974 658.631 402.772 584.667 365.424C510.492 328.075 404.619 284.423 372.286 218.394C318.398 108.24 203.015 255.269 148.493 283.163Z" stroke="#464646" stroke-opacity="0.7" stroke-miterlimit="10"/>
<path d="M440.071 622.515C544.657 636.688 583.744 545.827 670.16 502.049C756.786 458.115 730.165 422.211 674.385 372.765C642.904 344.893 580.152 326.941 522.049 303.163C457.819 276.865 408.167 242.064 400.349 180.65C385.137 60.3417 178.501 222.537 122.51 263.323C44.1236 320.327 56.8007 368.986 89.5498 415.283C122.51 461.579 173.852 503.939 167.302 544.409C157.583 604.406 284.988 601.414 440.071 622.515Z" stroke="#464646" stroke-opacity="0.7" stroke-miterlimit="10"/>
<path d="M473.578 649.994C583.896 650.783 650.129 576.163 733.87 526.627C812.548 480.089 804.533 435.759 763.822 377.389C735.557 336.845 649.707 320.596 570.185 294.408C486.445 266.801 421.688 227.993 428.649 139.964C438.985 12.0225 154.224 186.029 97.2724 240.771C26.3987 308.922 41.5859 366.346 75.1244 420.614C108.663 474.883 158.021 524.734 148.529 573.797C135.24 644.946 295.339 648.732 473.578 649.994Z" stroke="#464646" stroke-opacity="0.7" stroke-miterlimit="10"/>
<path d="M501.461 674.401C617.848 662.741 711.844 603.967 793.167 548.659C864.562 500.127 877.235 446.238 849.142 380.059C826.329 326.485 714.801 312.303 613.623 283.783C510.333 254.79 425.842 211.615 451.823 97.6917C482.873 -38.607 122.73 147.327 65.9101 216.343C1.0632 294.97 20.2849 361.465 54.5038 423.548C88.7227 485.789 136.46 542.829 123.998 600.342C106.255 682.437 299.95 694.727 501.461 674.401Z" stroke="#464646" stroke-opacity="0.7" stroke-miterlimit="10"/>
</g>
<defs>
<clipPath id="clip0_213_156">
<rect width="939" height="718" fill="white" transform="matrix(-1 0 0 -1 939 718)"/>
</clipPath>
</defs>
</svg>
