<svg width="30" height="30" viewBox="0 0 30 30" fill="none" xmlns="http://www.w3.org/2000/svg">
<path d="M27.3525 0.00780942C27.8579 0.242078 28.0212 0.640334 27.9979 1.18696C27.9667 1.96785 27.9901 2.74875 27.9901 3.52964C27.9901 4.16998 27.6402 4.51357 26.9949 4.52138C26.4973 4.52138 25.953 4.40424 25.5254 4.57604C25.1133 4.74784 24.8179 5.22418 24.4758 5.56778C24.1414 5.89575 23.8071 6.21592 23.395 6.62198C23.5505 6.73131 23.6749 6.80159 23.776 6.9031C24.2503 7.37164 24.2503 7.8636 23.7838 8.33214C23.2629 8.85534 22.7419 9.37854 22.221 9.90955C22.151 9.97983 22.0888 10.0501 22.0111 10.136C22.6409 10.9169 22.6953 11.8227 22.6953 12.7676C22.6797 17.4061 22.6875 22.0368 22.6875 26.6753C22.6875 28.284 21.7156 29.549 20.2151 29.9082C19.9429 29.9707 19.6553 29.9941 19.3754 29.9941C14.0184 30.002 8.66915 30.002 3.31216 29.9941C1.39173 29.9941 0 28.5963 0 26.6675C0 20.1002 0 13.5329 0 6.95777C0 5.02896 1.39173 3.63116 3.30438 3.63116C6.75649 3.63116 10.2008 3.63897 13.6529 3.62335C14.5782 3.61554 15.4567 3.69363 16.2498 4.33396C16.8018 3.77172 17.3305 3.22509 17.867 2.67066C17.9447 2.58476 18.0303 2.49886 18.1158 2.42077C18.4735 2.0928 18.94 2.08499 19.3054 2.40516C19.4531 2.5301 19.5697 2.68628 19.7252 2.85807C19.8263 2.76437 19.9041 2.69409 19.974 2.6238C20.6816 1.91319 21.3813 1.19477 22.1044 0.491965C22.291 0.30455 22.5242 0.163988 22.7419 0C24.2814 0.00780894 25.8131 0.00780942 27.3525 0.00780942ZM1.74938 16.7892C1.74938 20.0612 1.74938 23.3253 1.74938 26.5973C1.74938 27.6593 2.33251 28.2371 3.39769 28.2371C8.70025 28.2371 14.0106 28.2371 19.3132 28.2371C20.355 28.2371 20.9381 27.6515 20.9381 26.6051C20.9381 21.826 20.9381 17.0391 20.9459 12.26C20.9459 11.7368 20.7749 11.323 20.4017 10.9559C18.7223 9.28483 17.0584 7.60591 15.3945 5.92699C15.0291 5.55997 14.6093 5.38817 14.0961 5.38817C10.5274 5.39598 6.96642 5.39598 3.39769 5.39598C2.33251 5.39598 1.75716 5.97384 1.75716 7.03586C1.74938 10.2844 1.74938 13.5407 1.74938 16.7892ZM26.2251 2.76436C26.2251 2.41296 26.2251 2.10061 26.2251 1.76482C25.2688 1.76482 24.3358 1.76482 23.395 1.77263C23.3173 1.77263 23.224 1.85853 23.1618 1.921C22.8041 2.2724 22.4465 2.63942 22.0888 2.99083C21.7234 3.35004 21.3658 3.71706 21.0237 4.05284C21.4513 4.48233 21.8556 4.8884 22.2677 5.30227C22.9752 4.59166 23.706 3.86543 24.4291 3.12358C24.6779 2.87369 24.9578 2.74094 25.3077 2.75656C25.6109 2.77218 25.9064 2.76436 26.2251 2.76436ZM20.7515 8.79287C21.1558 8.3868 21.5601 7.98855 21.9178 7.62153C20.8526 6.5517 19.7641 5.45845 18.7145 4.40424C18.3413 4.77907 17.937 5.18514 17.5482 5.57558C18.6134 6.64541 19.6941 7.73085 20.7515 8.79287Z" fill="#02E602"/>
<path d="M29.9926 13.6068C29.8963 13.9012 29.837 14.2201 29.7111 14.4982C29.2 15.635 28.0149 16.2238 26.9112 15.9212C25.7705 15.6022 24.9854 14.49 25.0002 13.2142C25.0076 12.6581 25.1928 12.1429 25.4446 11.6849C25.8891 10.8998 26.3557 10.1228 26.8446 9.37045C27.1853 8.85523 27.8075 8.88794 28.1779 9.40317C28.926 10.4663 29.6296 11.5704 30 12.8707C29.9926 13.1161 29.9926 13.3614 29.9926 13.6068ZM27.5483 11.5131C27.5112 11.5131 27.4816 11.5131 27.4445 11.505C27.2149 11.9629 26.9705 12.4209 26.7557 12.8953C26.5779 13.3042 26.6742 13.6967 26.9853 13.9584C27.289 14.2201 27.6816 14.2201 27.9927 13.9666C28.2964 13.7131 28.4075 13.3042 28.2371 12.9116C28.0223 12.4291 27.7779 11.9793 27.5483 11.5131Z" fill="#02E602"/>
<path d="M17 15.9968C16.9301 16.121 16.8447 16.3617 16.6816 16.5325C16.2778 16.975 15.8274 17.3865 15.4158 17.8212C15.3226 17.9221 15.2449 18.0851 15.2449 18.2171C15.2294 19.7387 15.2294 21.2603 15.2449 22.7897C15.2449 22.9216 15.3226 23.0847 15.4158 23.1856C15.8196 23.6126 16.2467 24.024 16.6661 24.4432C17.0621 24.8469 17.0932 25.3748 16.736 25.7397C16.371 26.1123 15.8351 26.0813 15.4236 25.6698C15.0042 25.2506 14.5926 24.8236 14.1655 24.4199C14.0723 24.3345 13.917 24.2647 13.7928 24.2647C12.2629 24.2569 10.7253 24.2569 9.19547 24.2647C9.07122 24.2647 8.91591 24.3345 8.82272 24.4199C8.3956 24.8236 7.98402 25.2506 7.56467 25.6698C7.14533 26.0813 6.61726 26.1123 6.25227 25.7397C5.88728 25.367 5.91835 24.8469 6.34546 24.4277C6.76481 24.0085 7.18415 23.597 7.59574 23.1701C7.68116 23.0847 7.74329 22.9372 7.74329 22.8207C7.75105 21.2758 7.75105 19.7387 7.74329 18.1938C7.74329 18.0774 7.68116 17.9299 7.59574 17.8445C7.18415 17.4097 6.74927 16.9905 6.32216 16.5636C5.91835 16.1521 5.89505 15.6397 6.25227 15.2671C6.60949 14.9022 7.13756 14.9177 7.54914 15.3137C7.98402 15.7407 8.41113 16.1832 8.85378 16.6024C8.93144 16.68 9.07122 16.7343 9.17994 16.7421C10.7331 16.7499 12.2862 16.7499 13.8394 16.7421C13.9558 16.7421 14.0956 16.6722 14.1811 16.5868C14.6315 16.1599 15.0586 15.7096 15.5012 15.2749C15.7963 14.9876 16.1535 14.9255 16.4875 15.0885C16.8059 15.2438 16.9612 15.5155 17 15.9968ZM13.4899 18.5199C12.1387 18.5199 10.8185 18.5199 9.49833 18.5199C9.49833 19.8552 9.49833 21.1749 9.49833 22.4869C10.8418 22.4869 12.162 22.4869 13.4899 22.4869C13.4899 21.1594 13.4899 19.8552 13.4899 18.5199Z" fill="#02E602"/>
<path d="M12.2695 11.9925C10.3921 11.9925 8.51472 12 6.63733 11.9925C5.13541 11.985 3.96104 10.8181 4.00099 9.4117C4.04093 8.11756 5.19133 7.01791 6.5814 7.01043C9.22573 6.99547 11.8701 6.99546 14.5224 7.01791C14.754 7.01791 15.0416 7.13012 15.2094 7.28721C16.3918 8.36442 17.5502 9.45659 18.7165 10.5488C18.9962 10.8106 19.076 11.1322 18.9243 11.4764C18.7725 11.8354 18.4609 12 18.0535 12C16.1202 11.9925 14.1948 11.9925 12.2695 11.9925ZM15.8405 10.3094C15.8565 10.2869 15.8725 10.272 15.8885 10.2495C15.3772 9.77826 14.8739 9.2995 14.3546 8.84318C14.2507 8.75341 14.083 8.68609 13.9392 8.68609C12.7009 8.67113 11.4626 8.67861 10.2243 8.67861C9.06595 8.67861 7.90756 8.67861 6.74917 8.67861C6.34174 8.67861 6.03017 8.82822 5.87039 9.18729C5.61475 9.74085 6.05414 10.3094 6.73319 10.3094C8.29902 10.3169 9.86484 10.3094 11.4387 10.3094C12.9006 10.3094 14.3706 10.3094 15.8405 10.3094Z" fill="#02E602"/>
</svg>
