<svg width="18" height="23" viewBox="0 0 18 23" fill="none" xmlns="http://www.w3.org/2000/svg">
<path d="M1.01305 6.95902C0.809409 6.95902 0.656679 6.96721 0.495464 6.95902C0.190005 6.94262 0.0203039 6.79508 0.0118189 6.5C0.00333393 5.80328 -0.0136355 5.10656 0.0203044 4.40984C0.0712144 3.5 0.809409 2.85246 1.76821 2.84426C2.71005 2.83606 3.65188 2.84426 4.6022 2.84426C4.7125 2.84426 4.83129 2.84426 4.99251 2.84426C4.99251 2.53279 4.99251 2.2541 4.99251 1.96721C5.00099 0.754098 5.7901 0 7.05436 0C8.34408 0 9.64228 0 10.932 0C12.1369 0 12.926 0.754097 12.9514 1.90984C12.9599 2.20492 12.9514 2.5 12.9514 2.84426C13.0872 2.84426 13.1975 2.84426 13.3163 2.84426C14.2581 2.84426 15.1999 2.84426 16.1503 2.84426C17.2788 2.84426 17.9915 3.54098 18 4.63934C18 5.18852 18 5.7459 18 6.29508C18 6.84426 17.8897 6.95082 17.3127 6.95902C17.2363 6.95902 17.1685 6.95902 17.0921 6.96721C17.0751 6.96721 17.0582 6.98361 16.9988 7.0082C16.9988 7.11475 16.9988 7.22951 16.9988 7.35246C16.9988 11.6967 16.9988 16.041 16.9988 20.3852C16.9988 22.0164 15.9806 23 14.2836 23C10.7538 23 7.22406 23 3.6943 23C2.04822 23 1.02153 22.0082 1.02153 20.4098C1.02153 16.0656 1.02153 11.7213 1.02153 7.37705C1.01305 7.2541 1.01305 7.13115 1.01305 6.95902ZM1.90397 6.97541C1.90397 7.11475 1.90397 7.21311 1.90397 7.31147C1.90397 11.6885 1.90397 16.0574 1.90397 20.4344C1.90397 21.5082 2.54883 22.1311 3.66036 22.1311C7.22406 22.1311 10.7878 22.1311 14.3515 22.1311C15.463 22.1311 16.1078 21.5082 16.1078 20.4344C16.1078 16.0574 16.1078 11.6885 16.1078 7.31147C16.1078 7.20492 16.1078 7.09836 16.1078 6.97541C11.3562 6.97541 6.64708 6.97541 1.90397 6.97541ZM17.1091 6.08197C17.1091 5.63934 17.1091 5.21311 17.1091 4.78689C17.1091 3.97541 16.8291 3.70492 15.9806 3.70492C11.3223 3.70492 6.67254 3.70492 2.01428 3.70492C1.87003 3.70492 1.7173 3.70492 1.57306 3.72951C1.24214 3.79508 0.979108 3.9918 0.953653 4.31147C0.911228 4.89344 0.945168 5.48361 0.945168 6.08197C6.31617 6.08197 11.6957 6.08197 17.1091 6.08197ZM5.89192 2.81967C7.96226 2.81967 9.99865 2.81967 12.0605 2.81967C12.0605 2.54918 12.0605 2.30328 12.0605 2.06557C12.0605 1.95082 12.0605 1.83606 12.0435 1.72951C11.9757 1.2459 11.5938 0.877047 11.0847 0.868851C9.67622 0.860654 8.26771 0.860654 6.85921 0.868851C6.35859 0.868851 5.94283 1.2377 5.9004 1.72951C5.87495 2.08197 5.89192 2.44262 5.89192 2.81967Z" fill="#02E602"/>
<path d="M12.9977 14.0004C12.9977 15.4439 12.9977 16.8956 12.9977 18.339C12.9977 18.4532 12.9977 18.5674 12.9697 18.6734C12.9137 18.8854 12.7363 19.0078 12.4843 18.9996C12.223 18.9915 12.055 18.861 12.0177 18.6163C12.0083 18.5429 12.0083 18.4777 12.0083 18.4043C12.0083 15.4602 12.0083 12.5162 12.0083 9.57212C12.0083 9.49057 11.9803 9.38454 12.027 9.33561C12.1483 9.20513 12.2883 9.01756 12.447 9.00125C12.6057 8.98494 12.811 9.13173 12.9323 9.24591C13.007 9.3193 12.9883 9.47425 12.9883 9.59658C13.007 11.0645 12.9977 12.5325 12.9977 14.0004Z" fill="#02E602"/>
<path d="M5.99763 14.0136C5.99763 15.4533 5.99763 16.9011 5.99763 18.3408C5.99763 18.4303 6.00711 18.5279 5.98814 18.6173C5.95968 18.8532 5.77943 18.9915 5.52329 18.9996C5.25766 19.0078 5.07741 18.8776 5.02049 18.6499C5.00152 18.5604 5.00152 18.4709 5.00152 18.3733C5.00152 15.4533 5.00152 12.5413 5.00152 9.62126C5.00152 9.52365 4.99203 9.41791 5.02049 9.3203C5.09638 9.10069 5.27663 8.97868 5.55175 9.00308C5.80789 9.02748 5.95968 9.15762 5.98814 9.37724C6.00711 9.57245 5.99763 9.75953 5.99763 9.95475C5.99763 11.305 5.99763 12.6552 5.99763 14.0136Z" fill="#02E602"/>
<path d="M9.99761 13.9878C9.99761 15.4279 9.99761 16.8761 9.99761 18.3162C9.99761 18.4139 9.99761 18.5196 9.98804 18.6173C9.95933 18.8532 9.78708 18.9915 9.51914 18.9997C9.23206 19.0078 9.05024 18.8695 9.01196 18.6173C8.99282 18.5278 9.00239 18.4383 9.00239 18.3406C9.00239 15.4442 9.00239 12.5477 9.00239 9.65123C9.00239 9.56173 9.00239 9.4641 9.01196 9.3746C9.05024 9.13052 9.22249 8.9922 9.51914 9.00034C9.79665 9.00848 9.95933 9.14679 9.98804 9.3746C10.0072 9.47224 9.99761 9.57801 9.99761 9.67564C9.99761 11.1239 9.99761 12.5558 9.99761 13.9878Z" fill="#02E602"/>
</svg>
