<svg width="36" height="36" viewBox="0 0 36 36" fill="none" xmlns="http://www.w3.org/2000/svg">
<g clip-path="url(#clip0_208_50)">
<path d="M17.8245 33.9754C14.2145 33.9754 10.6295 33.9754 7.0195 33.9754C3.61003 33.9754 0.827298 31.758 0.125348 28.4812C0.0250696 28.013 0 27.5696 0 27.1014C0 20.3507 0 13.6246 0 6.87391C0 3.0058 3.08357 0 7.0195 0C7.87187 0 8.7493 0 9.60167 0C10.429 0 11.0557 0.591304 11.0557 1.35507C11.0557 2.11884 10.429 2.68551 9.60167 2.71014C8.47354 2.73478 7.3454 2.61159 6.24234 2.78406C4.2117 3.10435 2.78273 4.77971 2.78273 6.82464C2.78273 12.171 2.78273 17.542 2.78273 22.8884C2.78273 24.2681 2.78273 25.6725 2.78273 27.0522C2.78273 29.4667 4.58774 31.2652 7.06964 31.2652C14.3398 31.2652 21.61 31.2652 28.9053 31.2652C29.9081 31.2652 30.4596 30.7232 30.4596 29.7377C30.4596 28.5551 30.4596 27.3478 30.4596 26.1652C30.4596 25.8942 30.3844 25.8203 30.1086 25.8203C28.4039 25.8449 26.6741 25.8449 24.9694 25.8203C21.7855 25.7957 19.3036 23.258 19.4039 20.129C19.5042 17.3942 21.9109 14.9797 24.6936 14.9551C28.0028 14.9058 31.2869 14.9304 34.5961 14.9551C35.3983 14.9551 36 15.5464 36 16.3348C36 19.0449 36 21.7551 36 24.4406C36 25.229 35.3983 25.7957 34.6212 25.8203C34.2953 25.8203 33.9944 25.8449 33.6685 25.8203C33.2925 25.771 33.2423 25.9188 33.2423 26.2638C33.2674 27.4217 33.2423 28.5551 33.2423 29.713C33.2423 32.2261 31.4624 34 28.9053 34C25.195 33.9754 21.5097 33.9754 17.8245 33.9754ZM28.7799 23.1101C30.1337 23.1101 31.4875 23.1101 32.8412 23.1101C33.117 23.1101 33.1922 23.0609 33.1922 22.7652C33.1671 21.1884 33.1671 19.587 33.1922 18.0101C33.1922 17.6899 33.0919 17.6406 32.8162 17.6406C30.2089 17.6406 27.6017 17.6406 24.9944 17.6406C23.3649 17.6406 22.1365 18.8232 22.1114 20.3507C22.1114 21.8783 23.3398 23.0609 24.9694 23.0855C26.2479 23.1101 27.5265 23.1101 28.7799 23.1101Z" fill="#02E602"/>
<path d="M17.5986 7.80443C13.9256 7.80443 10.2272 7.80443 6.55416 7.80443C5.74356 7.80443 5.16094 7.39759 5.03428 6.71104C4.8823 5.97364 5.23693 5.36337 6.07287 5.05824C7.2381 4.60054 8.40334 4.14284 9.56858 3.71057C14.2802 1.85435 19.0425 0.0235586 23.8048 -1.80723C24.9447 -2.23951 25.5779 -1.9598 26.0339 -0.815555C26.7685 1.01524 27.5031 2.82061 28.2124 4.6514C28.3137 4.90568 28.4404 5.00739 28.719 5.00739C31.2015 5.03281 33 6.83818 33 9.33009C33 9.76236 33 10.1692 33 10.6015C32.9747 11.3897 32.3667 12 31.6068 12C30.8215 12 30.2136 11.3897 30.1882 10.5761C30.1882 10.1692 30.1882 9.76236 30.1882 9.35552C30.1882 8.38927 29.6056 7.80443 28.643 7.80443C24.97 7.80443 21.2716 7.80443 17.5986 7.80443ZM25.3246 4.98196C24.8687 3.81228 24.3874 2.66804 23.9567 1.52379C23.8554 1.24409 23.7288 1.19323 23.4501 1.29494C21.3983 2.10863 19.3464 2.89689 17.2946 3.68515C16.2307 4.09199 15.1668 4.49883 14.1282 4.90568C14.1282 4.9311 14.1282 4.9311 14.1535 4.95653C17.8519 4.98196 21.5503 4.98196 25.3246 4.98196Z" fill="#02E602"/>
</g>
<defs>
<clipPath id="clip0_208_50">
<rect width="36" height="36" fill="white"/>
</clipPath>
</defs>
</svg>
