<svg width="38" height="25" viewBox="0 0 38 25" fill="none" xmlns="http://www.w3.org/2000/svg">
<path d="M19.0386 8.31486C24.7105 8.41387 30.3721 8.51269 36.044 8.6117C36.8395 8.62558 36.9914 8.80953 36.9755 9.73991C36.8967 14.3314 36.818 18.9228 36.7393 23.5143C36.7234 24.4447 36.5653 24.6232 35.7698 24.6093C24.4052 24.411 13.0407 24.2126 1.67622 24.0142C0.880706 24.0004 0.728841 23.8164 0.744792 22.886C0.823509 18.2946 0.902225 13.7031 0.980942 9.11162C0.996893 8.18124 1.15497 8.00271 1.95049 8.01659C7.64308 8.11596 13.346 8.2155 19.0386 8.31486ZM2.27565 9.54516C2.20129 13.8829 2.12754 18.1844 2.05359 22.4979C13.1908 22.6923 24.297 22.8862 35.4239 23.0804C35.4983 18.7427 35.572 14.4412 35.6458 10.1397C35.2429 10.1327 34.8813 10.1264 34.4783 10.1193C34.4748 10.3248 34.4721 10.4818 34.4692 10.651C34.4601 11.1826 34.4613 11.7145 34.4318 12.2337C34.4136 12.6926 34.1505 12.966 33.7786 12.9595C33.417 12.9532 33.174 12.6589 33.1612 12.1994C33.1559 11.9092 33.1709 11.6315 33.1759 11.3415C33.183 10.9307 33.1902 10.5078 33.1973 10.097C32.7633 10.0894 32.4017 10.0831 31.9988 10.0761C31.9955 10.2694 31.9926 10.4385 31.9899 10.5956C31.9648 12.0576 31.9398 13.5197 31.9145 14.9938C31.9046 15.5737 31.5787 15.8944 31.1462 15.8022C30.8063 15.7359 30.6255 15.4306 30.6342 14.9231C30.6593 13.4611 30.6844 11.999 30.7096 10.5249C30.7123 10.3679 30.7047 10.2106 30.6973 10.0413C30.2943 10.0342 29.9224 10.0277 29.5195 10.0207C29.5162 10.214 29.5133 10.3832 29.5106 10.5403C29.5013 11.084 29.5229 11.6283 29.462 12.1711C29.4374 12.4003 29.2669 12.6995 29.0898 12.781C28.9125 12.8746 28.6034 12.8208 28.461 12.6854C28.3083 12.5498 28.2313 12.2221 28.2148 11.9801C28.195 11.3271 28.227 10.6629 28.2386 9.98626C27.815 9.97886 27.4534 9.97255 27.0402 9.96534C27.0369 10.1587 27.0342 10.3157 27.0313 10.4849C27.0062 11.9469 26.9811 13.4089 26.9559 14.883C26.9463 15.4389 26.6827 15.7485 26.2799 15.7294C25.8979 15.7106 25.676 15.3925 25.6851 14.8609C25.6998 13.3987 25.7352 11.9368 25.7605 10.4627C25.7632 10.3056 25.7661 10.1365 25.769 9.96732C25.3454 9.95993 24.9631 9.95326 24.5602 9.94622C24.5476 10.6833 24.5461 11.3722 24.5238 12.0728C24.5056 12.5318 24.2322 12.805 23.8605 12.7864C23.5094 12.7682 23.2765 12.4861 23.253 12.0506C23.2468 11.8088 23.251 11.5671 23.2551 11.3255C23.2632 10.8542 23.2715 10.3709 23.2793 9.91178C22.8351 9.90402 22.4735 9.89771 22.0809 9.89086C22.0751 10.2292 22.0699 10.5313 22.0647 10.8333C22.043 12.102 22.0212 13.3707 21.9995 14.6394C21.9879 15.316 21.7651 15.6506 21.3314 15.6309C20.9184 15.6116 20.7068 15.2937 20.718 14.6412C20.7199 14.5325 20.7217 14.4237 20.7234 14.3271C20.7462 12.9979 20.7689 11.6688 20.7917 10.3397C20.7944 10.1827 20.7868 10.0254 20.7792 9.86814C20.3659 9.86092 19.994 9.85443 19.622 9.84794C19.609 10.0048 19.5966 10.1255 19.5947 10.2342C19.5846 10.8263 19.5848 11.4185 19.5542 11.9981C19.5366 12.4209 19.2632 12.6941 18.9119 12.6879C18.5607 12.6818 18.3173 12.4117 18.2937 11.9761C18.2867 11.7826 18.29 11.5893 18.2936 11.3839C18.3025 10.8643 18.3114 10.3448 18.3205 9.81313C17.8866 9.80556 17.525 9.79925 17.1221 9.79222C17.1187 9.98554 17.1158 10.1547 17.1131 10.3118C17.0881 11.7738 17.063 13.2358 17.0377 14.7099C17.0278 15.2899 16.7123 15.6107 16.2796 15.5307C15.9397 15.4643 15.7587 15.1711 15.7676 14.6515C15.7927 13.1895 15.8177 11.7275 15.843 10.2533C15.8457 10.0963 15.8383 9.92693 15.8308 9.75759C15.4279 9.75056 15.056 9.74407 14.6531 9.73704C14.6408 10.4499 14.6398 11.1147 14.6178 11.7911C14.5992 12.2742 14.367 12.5603 14.0153 12.5783C13.6221 12.6077 13.3483 12.3008 13.3467 11.7931C13.3481 11.1042 13.3703 10.4157 13.3825 9.70277C12.9589 9.69538 12.5973 9.68907 12.1841 9.68185C12.1808 9.87518 12.1781 10.0323 12.1754 10.1893C12.1503 11.6513 12.1252 13.1134 12.1 14.5875C12.0902 15.1554 11.8057 15.4767 11.3931 15.4333C11.0321 15.3907 10.8201 15.0969 10.8292 14.5653C10.8439 13.1031 10.8793 11.6412 10.9046 10.1671C10.9073 10.0101 10.9102 9.84091 10.9131 9.67175C10.4895 9.66436 10.1073 9.65769 9.70433 9.65066C9.69148 10.3998 9.6896 11.1129 9.65692 11.8133C9.63934 12.236 9.35583 12.497 9.00456 12.4908C8.67417 12.473 8.43056 12.2149 8.39628 11.8034C8.37914 11.5976 8.3932 11.3803 8.39672 11.1749C8.40563 10.6553 8.41454 10.1358 8.42324 9.62829C7.98932 9.62072 7.61739 9.61423 7.2248 9.60737C7.22127 9.81278 7.21858 9.96986 7.21568 10.139C7.19062 11.601 7.17588 13.0632 7.14028 14.5372C7.12992 15.1413 6.73112 15.4969 6.28977 15.32C5.95111 15.1812 5.85339 14.8531 5.86022 14.4544C5.89562 12.9925 5.91035 11.5303 5.93563 10.0562C5.93832 9.89917 5.93068 9.74191 5.92305 9.58465C5.50979 9.57744 5.14819 9.57113 4.74527 9.56409C4.73304 10.277 4.73178 10.9538 4.70984 11.6303C4.68998 12.1859 4.33292 12.5181 3.9114 12.3899C3.562 12.275 3.43287 11.9706 3.43991 11.5597C3.45151 10.8831 3.46291 10.2185 3.47492 9.51775C3.04018 9.5585 2.67858 9.55219 2.27565 9.54516Z" fill="#02E602"/>
<path d="M3.13689 4.28224C3.60294 4.81118 3.99809 5.25788 4.39305 5.71614C4.72704 6.11547 4.75048 6.55567 4.45621 6.85145C4.17247 7.13583 3.80135 7.09463 3.46695 6.71844C2.71755 5.84892 1.95782 4.97922 1.20861 4.09813C0.844036 3.67512 0.850384 3.30487 1.22924 2.89484C2.01853 2.0406 2.80801 1.17479 3.5971 0.332123C3.92314 -0.00939179 4.29525 -0.0260422 4.55895 0.256326C4.83258 0.562014 4.81472 1.0015 4.48828 1.36615C4.07766 1.82193 3.64658 2.26577 3.16268 2.77813C13.7153 2.96233 24.1646 3.14472 34.7173 3.32892C34.3729 2.92941 34.0792 2.58865 33.7856 2.24789C33.6539 2.09514 33.5119 1.9422 33.3908 1.77806C33.1585 1.47309 33.1654 1.06814 33.4077 0.794601C33.6501 0.509494 34.0429 0.493205 34.3064 0.787143C34.7625 1.29277 35.2079 1.82135 35.6535 2.33836C36.0081 2.73805 36.3524 3.13756 36.6964 3.56022C37.0202 3.9478 37.0137 4.32961 36.6769 4.69408C35.8769 5.57128 35.0666 6.4483 34.2459 7.32513C33.9304 7.65526 33.538 7.64841 33.2851 7.34308C33.0422 7.0495 33.0599 6.62159 33.3649 6.30286C33.786 5.83569 34.2274 5.39203 34.6688 4.94837C34.6488 4.9133 34.6388 4.88998 34.6188 4.85491C24.1595 4.64919 13.7102 4.4668 3.13689 4.28224Z" fill="#02E602"/>
</svg>
