<svg width="40" height="40" viewBox="0 0 40 40" fill="none" xmlns="http://www.w3.org/2000/svg">
<path d="M18 21.4038L14.7625 18.101L13 19.899L18 25L28 14.7981L26.2375 13L18 21.4038Z" fill="#02E602"/>
<path d="M20 38L12.28 33.8838C10.0792 32.7129 8.23872 30.9648 6.95616 28.8272C5.6736 26.6895 4.99736 24.2429 5.00001 21.75V5.5C5.00067 4.83716 5.26427 4.20166 5.73297 3.73296C6.20167 3.26427 6.83717 3.00066 7.50001 3H32.5C33.1628 3.00066 33.7983 3.26427 34.267 3.73296C34.7357 4.20166 34.9993 4.83716 35 5.5V21.75C35.0027 24.2429 34.3264 26.6895 33.0439 28.8272C31.7613 30.9648 29.9208 32.7129 27.72 33.8838L20 38ZM7.50001 5.5V21.75C7.49793 23.7898 8.05139 25.7916 9.10096 27.5406C10.1505 29.2896 11.6566 30.7197 13.4575 31.6775L20 35.1662L26.5425 31.6788C28.3436 30.7209 29.8498 29.2905 30.8994 27.5413C31.949 25.792 32.5023 23.79 32.5 21.75V5.5H7.50001Z" fill="#02E602"/>
</svg>
