<svg width="30" height="43" viewBox="0 0 30 43" fill="none" xmlns="http://www.w3.org/2000/svg">
<path d="M23.2455 18.7975C23.0323 15.0095 19.8851 12 16.0234 12C13.7274 12 11.6848 13.066 10.3576 14.724C9.71455 14.5351 9.05084 14.4391 8.38407 14.4385C4.5224 14.4385 1.392 17.553 1.392 21.3935C1.392 22.773 1.8008 24.0555 2.49707 25.137C1.56187 26.368 1 27.896 1 29.558C1 33.6155 4.30633 36.904 8.38453 36.904C10.1565 36.904 11.7725 36.272 13.0437 35.236C13.0745 35.4535 13.103 35.676 13.1343 35.892C13.4376 38.014 13.7031 40.0525 13.5664 42L16.8331 41.9625C16.7001 39.788 16.1821 37.7535 15.6585 35.829C16.5427 36.2994 17.5165 36.5439 18.5037 36.5435C21.811 36.5435 24.4957 33.916 24.5774 30.6455C27.1287 29.927 29 27.598 29 24.8305C29 21.5985 26.4511 18.967 23.2455 18.7975ZM24.2213 29.195L23.2059 29.481L23.1774 30.6055C23.1163 33.053 21.0195 35.0435 18.5033 35.0435C17.1765 35.0435 15.9235 34.491 15.0322 33.529C14.6715 32.174 14.3467 30.831 14.1399 29.472C14.8866 29.4335 15.6137 29.336 16.3431 29.192C17.359 28.9875 18.3563 28.681 19.3003 28.244C20.243 27.809 21.1311 27.24 21.8941 26.5275C22.6509 25.8251 23.2771 24.9759 23.7397 24.0245C23.2163 24.9242 22.5395 25.7104 21.7447 26.342C20.9537 26.974 20.0596 27.4505 19.1267 27.795C18.1929 28.1405 17.2185 28.3575 16.2362 28.475C15.4993 28.5638 14.7575 28.5964 14.0163 28.5725C13.8091 26.734 13.8483 24.866 14.2207 23.0285C14.6323 20.9755 15.4354 18.984 16.4896 17.1355C15.2119 18.825 14.1371 20.7195 13.4339 22.801C13.0255 24.0005 12.7586 25.258 12.6093 26.5345C12.2659 26.3302 11.9309 26.1104 11.605 25.8755C11.005 25.4451 10.4438 24.9556 9.92873 24.4135C8.90767 23.335 8.09567 21.9805 7.8516 20.4375C7.93747 21.9985 8.62627 23.4965 9.5778 24.733C10.0587 25.3566 10.5932 25.9305 11.1743 26.447C11.6036 26.8295 12.0423 27.1845 12.5183 27.5135C12.4758 28.1264 12.4596 28.741 12.4697 29.3555C12.4833 30.3795 12.5626 31.395 12.6718 32.4C12.3251 32.3748 11.9797 32.3324 11.6367 32.273C10.9209 32.151 10.2198 31.9449 9.54607 31.6585C8.19973 31.0885 6.98453 30.125 6.14407 28.837C6.84827 30.207 7.99253 31.345 9.34447 32.0945C10.0248 32.4734 10.742 32.7707 11.4832 32.981C11.9097 33.1005 12.3363 33.1975 12.7731 33.2675C12.7824 33.3395 12.7931 33.409 12.8025 33.481C11.6657 34.7025 10.065 35.4045 8.38547 35.4045C5.08473 35.4045 2.4 32.7815 2.4 29.558C2.4 28.3035 2.8088 27.1025 3.583 26.0845L4.24613 25.212L3.64973 24.2855C3.0888 23.414 2.79247 22.414 2.79247 21.3935C2.79247 18.3855 5.30127 15.9385 8.38453 15.9385C8.9212 15.9385 9.46113 16.017 9.9894 16.171L10.8443 16.421L11.4207 15.7005C12.5397 14.302 14.2174 13.5 16.0234 13.5C19.1193 13.5 21.6775 15.8665 21.8479 18.8875L21.923 20.229L23.1765 20.2955C25.6568 20.427 27.6 22.4185 27.6 24.8305C27.6 26.84 26.2103 28.6345 24.2213 29.195Z" fill="#02E602"/>
<path d="M5.74966 11.9645L4.13184 11.1754C4.65179 9.95613 5.57558 8.99464 6.70056 8.50184C7.82554 8.00904 9.05986 8.02518 10.1328 8.54671L9.35023 10.3873C8.7065 10.0742 7.96585 10.0644 7.29082 10.3601C6.61579 10.6558 6.06153 11.2328 5.74966 11.9645ZM1.70509 9.99181L0.087262 9.20274C1.12699 6.76399 2.97455 4.84084 5.22458 3.85521C7.47462 2.86959 9.94336 2.902 12.0891 3.94534L11.3066 5.78589C9.58992 4.95155 7.61504 4.92579 5.8151 5.71425C4.01515 6.50271 2.53709 8.04103 1.70509 9.99181Z" fill="#02E602"/>
</svg>
